<svg xmlns="http://www.w3.org/2000/svg" width="730" height="180" viewBox="0 0 730 180"><defs><linearGradient id="green" x1="0" y1="0" x2="1" y2="1"><stop stop-color="#7ef1b5"/><stop offset=".4" stop-color="#21d9af"/><stop offset=".75" stop-color="#00a89b"/><stop offset="1" stop-color="#007c70"/></linearGradient><linearGradient id="mint"><stop stop-color="#7ed6b5"/><stop offset="1" stop-color="#d9f5ea"/></linearGradient><linearGradient id="white" x2=".8" y2="1"><stop stop-color="#ffffff"/><stop offset="1" stop-color="#e6fff6"/></linearGradient><linearGradient id="word"><stop stop-color="#009567"/><stop offset="1" stop-color="#20d3b2"/></linearGradient><linearGradient id="gray" x2="1" y2="1"><stop stop-color="#a4a4a4"/><stop offset="1" stop-color="#414141"/></linearGradient></defs><g transform="translate(8 7) scale(.6)"><g><path d="M136 67 Q143 43 169 51 L267 85 Q289 92 283 121 L256 237 Q250 263 224 255 L125 225Z" fill="url(#mint)"/><path d="M89 34 Q92 12 121 18 L245 45 Q265 50 263 78 L251 222 Q249 248 224 245 L91 229Z" fill="url(#green)"/><path d="M31 42 Q13 48 13 76 L12 216 Q12 245 42 256 L173 266 Q196 266 202 240 L220 47 Q220 9 185 14Z" fill="url(#green)"/><path d="M80 56 L192 34 Q217 30 220 61 L233 219 Q236 246 210 252 Q200 254 188 248 L144 231 Q134 227 122 235 L91 252 Q68 266 53 250 Q47 244 47 226 L46 102 Q46 69 80 56Z" fill="url(#white)"/><path d="M100 85 L161 73 Q181 70 182 90 L184 185 Q184 203 170 196 L145 182 Q136 176 125 187 L102 207 Q88 219 88 202 L87 111 Q87 90 100 85Z" fill="url(#green)"/></g></g><g transform="translate(198 33) scale(0.65)"><path d="M52.89194701486981 128.23791809228828Q41.5093100761324 128.23791809228828 31.80446562308631 124.05234626282305Q22.099621170040216 119.8667744333578 14.999496096903444 112.21727066062604Q7.899371023766673 104.56776688789427 3.9496855118833367 94.22330805532488Q0.0 83.87884922275549 0.0 71.6684786952188Q0.0 59.327131570100875 3.9496855118833367 49.04816103632211Q7.899371023766673 38.76919050254334 15.002158467844573 31.116217209692856Q22.104945911922474 23.463243916842373 31.802574421659166 19.281141607495847Q41.500202931395854 15.099039298149322 52.887393442501526 15.099039298149322Q64.3886041800905 15.099039298149322 74.02320929049438 19.27686522223324Q83.65781440089826 23.45469114631716 90.75614925909186 31.09991853378633Q97.85448411728545 38.7451459212555 101.8041696291688 49.03241419289046Q105.75385514105213 59.319682464525414 105.75385514105213 71.67088315334759Q105.75385514105213 83.89110724458851 101.8041696291688 94.24145935688531Q97.85448411728545 104.59181146918212 90.75614925909186 112.23703885665128Q83.65781440089826 119.88226624412044 74.02320929049438 124.06009216820436Q64.3886041800905 128.23791809228828 52.89194701486981 128.23791809228828ZM83.79139467193991 152.71543626445376Q77.45086079202494 152.71543626445376 71.9712637293458 151.2667796464853Q66.49166666666666 149.81812302851688 61.29712017019574 146.47979083726057Q56.10257367372483 143.14145864600428 50.46709289666052 137.36549990984736Q44.83161211959621 131.5895411736904 37.93033861399338 123.04186895360682L68.30494663793039 114.41384649752149Q71.64845264810658 120.14963011567757 74.14148771302241 123.32218743692276Q76.63452277793824 126.49474475816795 79.04961598566149 127.78300335169632Q81.46470919338472 129.07126194522468 84.40264367708043 129.07126194522468Q91.83949663385694 129.07126194522468 98.05885751105383 121.78272933937394L110.79830304174905 139.06281883283245Q100.80249572288754 152.71543626445376 83.79139467193991 152.71543626445376ZM52.887393442501526 100.76884066291163Q57.82223857770272 100.76884066291163 62.05560699817065 98.74027444746773Q66.28897541863859 96.71170823202381 69.47433870879863 92.918119131878Q72.65970199895867 89.12453003173218 74.43479634131504 83.7420708938285Q76.20989068367142 78.35961175592483 76.20989068367142 71.6684786952188Q76.20989068367142 64.95194164226872 74.43479634131504 59.57673222856677Q72.65970199895867 54.201522814864816 69.47433870879863 50.413385986639305Q66.28897541863859 46.625249158413794 62.05560699817065 44.596682942969885Q57.82223857770272 42.568116727525975 52.887393442501526 42.568116727525975Q47.95254830730034 42.568116727525975 43.708714014856945 44.596682942969885Q39.46487972241355 46.625249158413794 36.2795164322535 50.413385986639305Q33.09415314209346 54.201522814864816 31.31905879973708 59.57673222856677Q29.5439644573807 64.95194164226872 29.5439644573807 71.6684786952188Q29.5439644573807 78.35961175592483 31.31905879973708 83.7420708938285Q33.09415314209346 89.12453003173218 36.2795164322535 92.918119131878Q39.46487972241355 96.71170823202381 43.708714014856945 98.74027444746773Q47.95254830730034 100.76884066291163 52.887393442501526 100.76884066291163ZM148.28413098703163 127.37992476293732Q139.42852593300302 127.37992476293732 132.3540133571815 123.3079303948384Q125.27950078135993 119.23593602673947 121.25187341228401 110.58544003643158Q117.2242460432081 101.93494404612368 117.2242460432081 88.37850493965374V41.48997517732711H145.29530906303464V82.95783807724345Q145.29530906303464 92.3337797522558 148.19430440450003 96.23589100427454Q151.09329974596545 100.13800225629328 156.19559883277415 100.13800225629328Q159.45979532813413 100.13800225629328 162.1877603298746 98.30590093722122Q164.91572533161508 96.47379961814917 166.5781168299746 92.36320117911465Q168.2405083283341 88.25260274008014 168.2405083283341 81.69108686599914V41.48997517732711H196.31157134816064V125.92589129939788H169.59938953940497V101.81725833868828L174.8790306693033 108.50721361134669Q171.00728701461253 118.09194492093818 163.82922008428318 122.73593484193775Q156.65115315395383 127.37992476293732 148.28413098703163 127.37992476293732ZM211.34856466771834 125.92589129939788V41.48997517732711H239.4196276875449V125.92589129939788ZM225.38409617763162 33.442769661407354Q217.6659580731886 33.442769661407354 213.01810894231267 28.639650315469602Q208.3702598114367 23.83653096953185 208.3702598114367 16.721384830703684Q208.3702598114367 9.606238691875518 213.01810894231267 4.803119345937759Q217.6659580731886 0.0 225.38409617763162 0.0Q233.10223428207462 0.0 237.75008341295057 4.517121569487436Q242.3979325438265 9.034243138974873 242.3979325438265 16.149389277803053Q242.3979325438265 23.68150979066276 237.76054928492601 28.562139726035056Q233.12316602602556 33.442769661407354 225.38409617763162 33.442769661407354ZM292.8810131386969 127.37992476293732Q280.44670884529074 127.37992476293732 270.773134827175 121.82320690493817Q261.0995608090593 116.26648904693903 255.60371275579354 106.33975675374671Q250.10786470252773 96.4130244605544 250.10786470252773 83.64244493957187Q250.10786470252773 70.84782083730151 255.60371275579354 60.998599133543735Q261.0995608090593 51.14937742978596 270.773134827175 45.59265957178681Q280.44670884529074 40.035941713787665 292.8810131386969 40.035941713787665Q305.8529165833463 40.035941713787665 315.16239381281434 46.389272848416255Q324.4718710422823 52.742603983044845 328.19930121981025 64.11545569520179L306.48749509335585 76.62976131415618Q304.0258576443664 70.73895651713104 300.478819313292 68.06752960442486Q296.93178098221756 65.39610269171868 292.7460611682627 65.39610269171868Q288.8699000525844 65.39610269171868 285.602127169107 67.4847803603822Q282.3343542856296 69.57345802904572 280.43813721569234 73.6011690330747Q278.5419201457551 77.62888003710367 278.5419201457551 83.64244493957187Q278.5419201457551 89.65600984204008 280.43813721569234 93.74920914485966Q282.3343542856296 97.84240844767926 285.602127169107 99.93108611634278Q288.8699000525844 102.0197637850063 292.7460611682627 102.0197637850063Q296.93178098221756 102.0197637850063 300.478819313292 99.36035916294404Q304.0258576443664 96.70095454088178 306.48749509335585 90.78610516256879L328.19930121981025 103.3004107815232Q324.4718710422823 114.6492179123923 315.16239381281434 121.01457133766482Q305.8529165833463 127.37992476293732 292.8810131386969 127.37992476293732ZM359.9967412476577 111.18051401868152 360.62963761192697 72.95045310048604 388.2915296509431 41.48997517732711H421.5188520674561L388.0739038742121 81.43227576496722L373.95464538849507 94.55337520925212ZM336.58399323068255 125.92589129939788V10.900176578538236H364.6550562505091V125.92589129939788ZM390.0784072477614 125.92589129939788 368.7471609971781 95.05323701828924 386.06119455492103 70.51627109727931 424.010782767125 125.92589129939788Z" fill="#0f172a" fill-rule="nonzero"/><path  d="M456.8085290436302 102.26395658714205 455.2006756356418 64.99882101459093 493.29794161648925 17.41106609103973H525.3222665363165L485.16716584827543 67.89988123978512L468.8908845661045 87.157910587108ZM430.63615511661146 125.92589129939788V17.41106609103973H459.4750664711415V125.92589129939788ZM493.38387732278676 125.92589129939788 464.0766858488679 82.46172325746366 483.11259304108245 59.19972503983625 527.3162528421504 125.92589129939788ZM571.5149685974774 127.37992476293732Q558.2918842254168 127.37992476293732 548.4263481236252 121.69223030735694Q538.5608120218336 116.00453585177655 533.1324399537849 106.07780355858424Q527.7040678857362 96.15107126539192 527.7040678857362 83.64244493957187Q527.7040678857362 70.87186541858935 533.0544980965924 61.010621424187654Q538.4049283074485 51.14937742978596 547.7306565275031 45.59265957178681Q557.0563847475578 40.035941713787665 568.7228407062605 40.035941713787665Q579.5911550795802 40.035941713787665 588.6574452307418 45.05673089081793Q597.7237353819035 50.0775200678482 603.1672540752919 59.81980975531258Q608.6107727686804 69.56209944277697 608.6107727686804 83.73862326472326Q608.6107727686804 85.47865450471302 608.4862866702216 87.6062386918755Q608.3618005717628 89.73382287903799 608.2268486013286 91.4978987003156H550.8469119618429V75.3219276422209H593.3303802741796L582.7176642892587 79.74540808556077Q582.7385960332095 74.4000170611446 580.987796805682 70.56339410791648Q579.2369975781545 66.72677115468835 576.1925843942794 64.58462747787813Q573.1481712104043 62.442483801067915 568.950881159227 62.442483801067915Q564.7535911080498 62.442483801067915 561.6417019389576 64.58462747787813Q558.5298127698654 66.72677115468835 556.8464895275549 70.57541639856039Q555.1631662852444 74.42406164243243 555.1631662852444 79.8175418294243V84.7035486103676Q555.1631662852444 90.48995859010319 557.2408795668821 94.69008990921617Q559.3185928485198 98.89022122832915 563.1622519830248 101.0443871957833Q567.0059111175299 103.19855316323745 572.3759054147132 103.19855316323745Q577.6715342428214 103.19855316323745 581.2499701898223 101.5281184681074Q584.8284061368231 99.85768377297734 588.4930410824982 96.49276980142938L603.2033324445827 113.7861501850337Q597.8889806030172 120.42801629511644 590.0884831803941 123.90397052902688Q582.2879857577709 127.37992476293732 571.5149685974774 127.37992476293732ZM658.8288934684233 127.37992476293732Q645.6058090963627 127.37992476293732 635.7402729945711 121.69223030735694Q625.8747368927795 116.00453585177655 620.4463648247308 106.07780355858424Q615.0179927566821 96.15107126539192 615.0179927566821 83.64244493957187Q615.0179927566821 70.87186541858935 620.3684229675382 61.010621424187654Q625.7188531783944 51.14937742978596 635.044581398449 45.59265957178681Q644.3703096185037 40.035941713787665 656.0367655772064 40.035941713787665Q666.9050799505261 40.035941713787665 675.9713701016879 45.05673089081793Q685.0376602528495 50.0775200678482 690.4811789462378 59.81980975531258Q695.9246976396263 69.56209944277697 695.9246976396263 83.73862326472326Q695.9246976396263 85.47865450471302 695.8002115411675 87.6062386918755Q695.6757254427088 89.73382287903799 695.5407734722745 91.4978987003156H638.1608368327888V75.3219276422209H680.6443051451255L670.0315891602046 79.74540808556077Q670.0525209041555 74.4000170611446 668.301721676628 70.56339410791648Q666.5509224491004 66.72677115468835 663.5065092652253 64.58462747787813Q660.4620960813502 62.442483801067915 656.264806030173 62.442483801067915Q652.0675159789957 62.442483801067915 648.9556268099036 64.58462747787813Q645.8437376408114 66.72677115468835 644.1604143985008 70.57541639856039Q642.4770911561903 74.42406164243243 642.4770911561903 79.8175418294243V84.7035486103676Q642.4770911561903 90.48995859010319 644.5548044378281 94.69008990921617Q646.6325177194658 98.89022122832915 650.4761768539707 101.0443871957833Q654.3198359884757 103.19855316323745 659.6898302856591 103.19855316323745Q664.9854591137673 103.19855316323745 668.5638950607681 101.5281184681074Q672.142331007769 99.85768377297734 675.8069659534442 96.49276980142938L690.5172573155286 113.7861501850337Q685.2029054739631 120.42801629511644 677.40240805134 123.90397052902688Q669.601910628717 127.37992476293732 658.8288934684233 127.37992476293732ZM754.2261575977069 127.37992476293732Q744.7701581605824 127.37992476293732 738.3274375837832 122.67582338871813Q731.884717006984 117.97172201449895 728.695990345946 108.33098749775695Q725.5072636849081 98.69025298101495 725.5072636849081 83.77342153715311Q725.5072636849081 68.57059231684096 728.5040282622701 58.94188009074288Q731.5007928396323 49.3131678646448 737.8865033031898 44.67455478921623Q744.2722137667473 40.035941713787665 754.2261575977069 40.035941713787665Q764.089221676628 40.035941713787665 772.2072716466326 45.37215009412711Q780.3253216166373 50.70835847446655 785.1626608083186 60.49209187943371Q789.9999999999999 70.27582528440087 789.9999999999999 83.77342153715311Q789.9999999999999 97.27101778990536 785.1626608083186 107.05475119487252Q780.3253216166373 116.83848459983967 772.2072716466326 122.10920468138849Q764.089221676628 127.37992476293732 754.2261575977069 127.37992476293732ZM706.6222961613378 156.0V41.48997517732711H733.3344779700934V54.404217290909955L733.343839476822 83.79746611844095L734.6933591811643 113.19071494597196V156.0ZM747.880679672051 102.0197637850063Q751.7359090437783 102.0197637850063 754.8117198435798 99.93108611634278Q757.8875306433813 97.84240844767926 759.726737600077 93.73718685421574Q761.5659445567726 89.63196526075222 761.5659445567726 83.77342153715311Q761.5659445567726 77.75985663468492 759.726737600077 73.66665733186534Q757.8875306433813 69.57345802904574 754.8117198435798 67.48478036038222Q751.7359090437783 65.39610269171868 747.880679672051 65.39610269171868Q744.0254503003235 65.39610269171868 740.949639500522 67.48478036038222Q737.8738287007205 69.57345802904574 736.0346217440249 73.66665733186534Q734.1954147873292 77.75985663468492 734.1954147873292 83.77342153715311Q734.1954147873292 89.63196526075222 736.0346217440249 93.73718685421574Q737.8738287007205 97.84240844767926 740.949639500522 99.93108611634278Q744.0254503003235 102.0197637850063 747.880679672051 102.0197637850063Z" fill="url(#word)" fill-rule="nonzero"/></g></svg>